<svg width="113" height="54" viewBox="0 0 113 54" fill="none" xmlns="http://www.w3.org/2000/svg">
<g clip-path="url(#clip0_260_4456)">
<mask id="mask0_260_4456" style="mask-type:alpha" maskUnits="userSpaceOnUse" x="7" y="8" width="39" height="39">
<path d="M8.11887 19.5419C8.35611 13.4086 13.2828 8.49601 19.4168 8.27637L26.9434 8.00684L34.3312 8.27154C40.5175 8.49319 45.4661 13.4855 45.6333 19.6735L45.8333 27.0734L45.6353 34.3819C45.4672 40.5914 40.4858 45.5924 34.277 45.785L26.9434 46.0126L19.47 45.7809C13.3139 45.5899 8.35455 40.6689 8.11597 34.5145L7.82751 27.0734L8.11887 19.5419Z" fill="#00122B"/>
</mask>
<g mask="url(#mask0_260_4456)">
<path d="M61.2691 26.3437C61.2691 47.3015 44.0618 64.292 22.8343 64.292C1.60692 64.292 -15.6003 47.3015 -15.6003 26.3437C-15.6003 5.38592 1.60692 -11.6047 22.8343 -11.6047C44.0618 -11.6047 61.2691 5.38592 61.2691 26.3437Z" fill="#FF006E" stroke="black" stroke-width="0.0916741"/>
</g>
<path d="M34.2755 38.5479L15.2904 19.8185L19.5999 15.5598L38.585 34.2892L34.2755 38.5479Z" fill="#DFBCBC"/>
<path d="M26.6487 31.0239L15.2903 19.8184L19.5999 15.5598L30.9583 26.7652L26.6487 31.0239Z" fill="white"/>
<path d="M15.2935 34.2942L34.2706 15.5569L38.5819 19.8137L19.6048 38.551L15.2935 34.2942Z" fill="#DFBCBC"/>
<path d="M15.2935 34.294L26.8808 22.8533L31.192 27.1101L19.6047 38.5509L15.2935 34.294Z" fill="white"/>
</g>
<path d="M58.3677 17.8153H61.1955L65.3591 29.7163L69.5228 17.8153H72.3505L66.4947 34.0247H64.2236L58.3677 17.8153ZM56.8425 17.8153H59.6591L60.1712 29.4157V34.0247H56.8425V17.8153ZM71.0591 17.8153H73.8869V34.0247H70.547V29.4157L71.0591 17.8153ZM79.9988 21.979V34.0247H76.7814V21.979H79.9988ZM76.581 18.8395C76.581 18.3719 76.7443 17.986 77.0708 17.6817C77.3974 17.3774 77.8353 17.2252 78.3845 17.2252C78.9263 17.2252 79.3605 17.3774 79.6871 17.6817C80.021 17.986 80.188 18.3719 80.188 18.8395C80.188 19.3071 80.021 19.693 79.6871 19.9973C79.3605 20.3016 78.9263 20.4538 78.3845 20.4538C77.8353 20.4538 77.3974 20.3016 77.0708 19.9973C76.7443 19.693 76.581 19.3071 76.581 18.8395ZM85.2312 21.979L87.224 25.6417L89.2724 21.979H92.6902L89.2835 27.8682L92.846 34.0247H89.4171L87.2462 30.1504L85.0753 34.0247H81.6464L85.2089 27.8682L81.8023 21.979H85.2312ZM93.3582 28.1243V27.8905C93.3582 27.0073 93.4843 26.1946 93.7367 25.4524C93.989 24.7028 94.3564 24.0534 94.8388 23.5042C95.3212 22.9549 95.915 22.5282 96.6201 22.2239C97.3251 21.9122 98.1341 21.7563 99.047 21.7563C99.9599 21.7563 100.773 21.9122 101.485 22.2239C102.198 22.5282 102.795 22.9549 103.277 23.5042C103.767 24.0534 104.138 24.7028 104.391 25.4524C104.643 26.1946 104.769 27.0073 104.769 27.8905V28.1243C104.769 29 104.643 29.8127 104.391 30.5624C104.138 31.3045 103.767 31.954 103.277 32.5106C102.795 33.0598 102.201 33.4866 101.496 33.7909C100.791 34.0952 99.9822 34.2473 99.0693 34.2473C98.1564 34.2473 97.3437 34.0952 96.6312 33.7909C95.9261 33.4866 95.3287 33.0598 94.8388 32.5106C94.3564 31.954 93.989 31.3045 93.7367 30.5624C93.4843 29.8127 93.3582 29 93.3582 28.1243ZM96.5644 27.8905V28.1243C96.5644 28.629 96.6089 29.1002 96.698 29.5381C96.7871 29.976 96.9281 30.362 97.121 30.6959C97.3214 31.0225 97.5812 31.2786 97.9003 31.4641C98.2195 31.6497 98.6091 31.7424 99.0693 31.7424C99.5146 31.7424 99.8968 31.6497 100.216 31.4641C100.535 31.2786 100.791 31.0225 100.984 30.6959C101.177 30.362 101.318 29.976 101.407 29.5381C101.504 29.1002 101.552 28.629 101.552 28.1243V27.8905C101.552 27.4006 101.504 26.9405 101.407 26.51C101.318 26.0721 101.173 25.6862 100.973 25.3522C100.78 25.0108 100.524 24.7436 100.205 24.5506C99.8857 24.3577 99.4998 24.2612 99.047 24.2612C98.5943 24.2612 98.2083 24.3577 97.8892 24.5506C97.5775 24.7436 97.3214 25.0108 97.121 25.3522C96.9281 25.6862 96.7871 26.0721 96.698 26.51C96.6089 26.9405 96.5644 27.4006 96.5644 27.8905Z" fill="#0F172A"/>
<defs>
<clipPath id="clip0_260_4456">
<rect width="38.08" height="38.08" fill="white" transform="translate(7.8053 7.98486)"/>
</clipPath>
</defs>
</svg>
